<?xml version="1.0" standalone="no"?>
<!DOCTYPE svg PUBLIC "-//W3C//DTD SVG 20010904//EN"
 "http://www.w3.org/TR/2001/REC-SVG-20010904/DTD/svg10.dtd">
<svg version="1.0" xmlns="http://www.w3.org/2000/svg"
 width="256.000000pt" height="256.000000pt" viewBox="0 0 256.000000 256.000000"
 preserveAspectRatio="xMidYMid meet">
<metadata>
Created by potrace 1.16, written by Peter Selinger 2001-2019
</metadata>
<g transform="translate(0.000000,256.000000) scale(0.100000,-0.100000)"
fill="#000000" stroke="none">
<path d="M0 2184 l0 -376 177 171 c98 94 272 263 388 376 l210 204 -387 1
-388 0 0 -376z"/>
<path d="M242 1698 c-15 -15 -17 -1024 -2 -1048 7 -12 37 -16 137 -18 73 -2
140 1 155 7 l28 10 2 278 3 278 42 -75 c23 -41 48 -85 57 -97 21 -29 91 -40
147 -22 38 13 47 22 86 94 24 44 48 84 54 90 5 5 9 -96 9 -268 l0 -277 26 -10
c14 -6 80 -10 147 -10 95 0 128 4 145 16 l22 15 0 513 c0 385 -3 515 -12 524
-8 8 -60 12 -169 12 -132 0 -159 -3 -170 -16 -8 -9 -48 -78 -89 -153 -54 -98
-81 -137 -96 -139 -16 -2 -34 22 -98 138 -43 77 -84 147 -93 155 -19 20 -312
22 -331 3z m234 -126 c6 -4 59 -79 117 -167 58 -88 114 -168 125 -178 12 -11
31 -17 49 -15 24 3 44 27 145 178 65 96 126 179 137 184 11 5 31 6 45 2 l26
-6 -2 -403 -3 -402 -5 400 -5 400 -23 3 c-13 2 -30 -2 -39 -10 -9 -7 -66 -87
-126 -178 -61 -91 -115 -168 -121 -173 -6 -4 -27 -6 -46 -5 -34 3 -40 11 -155
183 -99 148 -125 181 -146 183 -14 2 -31 -3 -37 -11 -8 -10 -13 -127 -15 -403
l-2 -389 -3 396 c-1 296 1 398 10 407 13 13 57 16 74 4z"/>
<path d="M1511 1691 c-7 -13 -11 -184 -11 -518 0 -415 2 -502 14 -519 13 -18
30 -19 267 -22 448 -5 551 20 622 153 21 39 22 50 22 390 0 342 -1 351 -22
391 -26 49 -72 90 -133 118 -43 20 -64 21 -397 24 -343 3 -352 3 -362 -17z
m663 -141 c35 -18 55 -37 70 -65 20 -38 21 -55 21 -315 0 -315 -2 -323 -86
-370 -43 -24 -50 -25 -276 -28 l-233 -4 0 407 0 407 228 -4 c220 -3 229 -4
276 -28z"/>
<path d="M1680 1176 l0 -396 195 0 c235 0 286 9 337 59 47 47 51 79 46 376 -4
268 -8 282 -93 325 -48 24 -59 25 -267 28 l-218 4 0 -396z m388 238 c22 -15
22 -19 22 -236 0 -274 8 -258 -137 -258 l-103 0 0 255 0 255 98 0 c72 0 103
-4 120 -16z"/>
</g>
</svg>
